<?xml version="1.0" encoding="UTF-8" standalone="no"?> <!-- Created with Vectornator for iOS (http://vectornator.io/) --><!DOCTYPE svg PUBLIC "-//W3C//DTD SVG 1.1//EN" "http://www.w3.org/Graphics/SVG/1.1/DTD/svg11.dtd">
<svg height="100%" style="fill-rule:nonzero;clip-rule:evenodd;stroke-linecap:round;stroke-linejoin:round;" xmlns:xlink="http://www.w3.org/1999/xlink" xmlns="http://www.w3.org/2000/svg" xml:space="preserve" width="100%" xmlns:vectornator="http://vectornator.io" version="1.1" viewBox="0 0 79.3742 75.36">
<metadata>
<vectornator:setting key="DimensionsVisible" value="1"/>
<vectornator:setting key="PencilOnly" value="0"/>
<vectornator:setting key="SnapToPoints" value="0"/>
<vectornator:setting key="OutlineMode" value="0"/>
<vectornator:setting key="CMYKEnabledKey" value="0"/>
<vectornator:setting key="RulersVisible" value="1"/>
<vectornator:setting key="SnapToEdges" value="0"/>
<vectornator:setting key="GuidesVisible" value="1"/>
<vectornator:setting key="DisplayWhiteBackground" value="0"/>
<vectornator:setting key="doHistoryDisabled" value="0"/>
<vectornator:setting key="SnapToGuides" value="1"/>
<vectornator:setting key="TimeLapseWatermarkDisabled" value="0"/>
<vectornator:setting key="Units" value="Points"/>
<vectornator:setting key="DynamicGuides" value="0"/>
<vectornator:setting key="IsolateActiveLayer" value="0"/>
<vectornator:setting key="SnapToGrid" value="0"/>
</metadata>
<defs/>
<g id="Untitled" vectornator:layerName="Untitled">
<g opacity="1">
<path d="M54.5176+52.1C57.4176+51.8+59.6176+49.3+59.5176+46.3C59.4176+43.3+56.9176+40.9+53.9176+40.9L53.7176+40.9C50.6176+41+48.2176+43.6+48.3176+46.7C48.4176+48.2+49.0176+49.5+49.9176+50.4C46.5176+57.1+41.3176+62+33.5176+66.1C28.2176+68.9+22.7176+69.9+17.2176+69.2C12.7176+68.6+9.21756+66.6+7.01756+63.3C3.81756+58.4+3.51756+53.1+6.21756+47.8C8.11756+44+11.1176+41.2+13.0176+39.8C12.6176+38.5+12.0176+36.3+11.7176+34.7C-2.78244+45.2-1.28244+59.4+3.11756+66.1C6.41756+71.1+13.1176+74.2+20.5176+74.2C22.5176+74.2+24.5176+74+26.5176+73.5C39.3176+71+49.0176+63.4+54.5176+52.1Z" opacity="1" fill="#764abc"/>
<path d="M72.1176+39.7C64.5176+30.8+53.3176+25.9+40.5176+25.9L38.9176+25.9C38.0176+24.1+36.1176+22.9+34.0176+22.9L33.8176+22.9C30.7176+23+28.3176+25.6+28.4176+28.7C28.5176+31.7+31.0176+34.1+34.0176+34.1L34.2176+34.1C36.4176+34+38.3176+32.6+39.1176+30.7L40.9176+30.7C48.5176+30.7+55.7176+32.9+62.2176+37.2C67.2176+40.5+70.8176+44.8+72.8176+50C74.5176+54.2+74.4176+58.3+72.6176+61.8C69.8176+67.1+65.1176+70+58.9176+70C54.9176+70+51.1176+68.8+49.1176+67.9C48.0176+68.9+46.0176+70.5+44.6176+71.5C48.9176+73.5+53.3176+74.6+57.5176+74.6C67.1176+74.6+74.2176+69.3+76.9176+64C79.8176+58.2+79.6176+48.2+72.1176+39.7Z" opacity="1" fill="#764abc"/>
<path d="M21.3176+53.8C21.4176+56.8+23.9176+59.2+26.9176+59.2L27.1176+59.2C30.2176+59.1+32.6176+56.5+32.5176+53.4C32.4176+50.4+29.9176+48+26.9176+48L26.7176+48C26.5176+48+26.2176+48+26.0176+48.1C21.9176+41.3+20.2176+33.9+20.8176+25.9C21.2176+19.9+23.2176+14.7+26.7176+10.4C29.6176+6.7+35.2176+4.9+39.0176+4.8C49.6176+4.6+54.1176+17.8+54.4176+23.1C55.7176+23.4+57.9176+24.1+59.4176+24.6C58.2176+8.4+48.2176+0+38.6176+0C29.6176+0+21.3176+6.5+18.0176+16.1C13.4176+28.9+16.4176+41.2+22.0176+50.9C21.5176+51.6+21.2176+52.7+21.3176+53.8Z" opacity="1" fill="#764abc"/>
</g>
</g>
</svg>
